<svg width="256" height="256" viewBox="0 0 256 256" fill="none" xmlns="http://www.w3.org/2000/svg">
<g clip-path="url(#clip0_13003_13836)">
<rect width="256" height="256" rx="8" fill="url(#paint0_linear_13003_13836)"/>
<line y1="-0.10423" x2="21.6545" y2="-0.10423" transform="matrix(0.588417 -0.808558 0.55263 0.833427 0 20.8684)" stroke="white" stroke-opacity="0.24" stroke-width="0.20846"/>
<line y1="-0.10423" x2="21.6545" y2="-0.10423" transform="matrix(0.588417 -0.808558 0.55263 0.833427 0 39.2104)" stroke="white" stroke-opacity="0.24" stroke-width="0.20846"/>
<line y1="-0.10423" x2="21.6545" y2="-0.10423" transform="matrix(0.588417 -0.808558 0.55263 0.833427 0 56.7087)" stroke="white" stroke-opacity="0.24" stroke-width="0.20846"/>
<line y1="-0.10423" x2="21.6545" y2="-0.10423" transform="matrix(0.588417 -0.808558 0.55263 0.833427 0 75.0506)" stroke="white" stroke-opacity="0.24" stroke-width="0.20846"/>
<line y1="-0.10423" x2="21.6545" y2="-0.10423" transform="matrix(0.588417 -0.808558 0.55263 0.833427 0 92.5645)" stroke="white" stroke-opacity="0.24" stroke-width="0.20846"/>
<line y1="-0.10423" x2="21.6545" y2="-0.10423" transform="matrix(0.588417 -0.808558 0.55263 0.833427 0 110.906)" stroke="white" stroke-opacity="0.24" stroke-width="0.20846"/>
<line y1="-0.10423" x2="21.6545" y2="-0.10423" transform="matrix(0.588417 -0.808558 0.55263 0.833427 0 128.405)" stroke="white" stroke-opacity="0.24" stroke-width="0.20846"/>
<line y1="-0.10423" x2="21.6545" y2="-0.10423" transform="matrix(0.588417 -0.808558 0.55263 0.833427 0 146.747)" stroke="white" stroke-opacity="0.24" stroke-width="0.20846"/>
<line y1="-0.10423" x2="21.6545" y2="-0.10423" transform="matrix(0.588417 -0.808558 0.55263 0.833427 0 164.276)" stroke="white" stroke-opacity="0.24" stroke-width="0.20846"/>
<line y1="-0.10423" x2="21.6545" y2="-0.10423" transform="matrix(0.588417 -0.808558 0.55263 0.833427 0 182.618)" stroke="white" stroke-opacity="0.24" stroke-width="0.20846"/>
<line y1="-0.10423" x2="21.6545" y2="-0.10423" transform="matrix(0.588417 -0.808558 0.55263 0.833427 0 200.117)" stroke="white" stroke-opacity="0.24" stroke-width="0.20846"/>
<line y1="-0.10423" x2="21.6545" y2="-0.10423" transform="matrix(0.588417 -0.808558 0.55263 0.833427 0 218.458)" stroke="white" stroke-opacity="0.24" stroke-width="0.20846"/>
<line y1="-0.10423" x2="21.6545" y2="-0.10423" transform="matrix(0.588417 -0.808558 0.55263 0.833427 0 235.972)" stroke="white" stroke-opacity="0.24" stroke-width="0.20846"/>
<line y1="-0.10423" x2="21.6545" y2="-0.10423" transform="matrix(0.588417 -0.808558 0.55263 0.833427 0 254.314)" stroke="white" stroke-opacity="0.24" stroke-width="0.20846"/>
<line y1="-0.10423" x2="21.6545" y2="-0.10423" transform="matrix(0.588417 -0.808558 0.55263 0.833427 22.0098 22.5397)" stroke="white" stroke-opacity="0.24" stroke-width="0.20846"/>
<line y1="-0.10423" x2="21.6545" y2="-0.10423" transform="matrix(0.588417 -0.808558 0.55263 0.833427 22.0098 40.8816)" stroke="white" stroke-opacity="0.24" stroke-width="0.20846"/>
<line y1="-0.10423" x2="21.6545" y2="-0.10423" transform="matrix(0.588417 -0.808558 0.55263 0.833427 22.0098 58.3955)" stroke="white" stroke-opacity="0.24" stroke-width="0.20846"/>
<line y1="-0.10423" x2="21.6545" y2="-0.10423" transform="matrix(0.588417 -0.808558 0.55263 0.833427 22.0098 76.7375)" stroke="white" stroke-opacity="0.24" stroke-width="0.20846"/>
<line y1="-0.10423" x2="21.6545" y2="-0.10423" transform="matrix(0.588417 -0.808558 0.55263 0.833427 22.0098 94.2358)" stroke="white" stroke-opacity="0.24" stroke-width="0.20846"/>
<line y1="-0.10423" x2="21.6545" y2="-0.10423" transform="matrix(0.588417 -0.808558 0.55263 0.833427 22.0098 112.578)" stroke="white" stroke-opacity="0.24" stroke-width="0.20846"/>
<line y1="-0.10423" x2="21.6545" y2="-0.10423" transform="matrix(0.588417 -0.808558 0.55263 0.833427 22.0098 130.092)" stroke="white" stroke-opacity="0.24" stroke-width="0.20846"/>
<line y1="-0.10423" x2="21.6545" y2="-0.10423" transform="matrix(0.588417 -0.808558 0.55263 0.833427 22.0098 148.449)" stroke="white" stroke-opacity="0.24" stroke-width="0.20846"/>
<line y1="-0.10423" x2="21.6545" y2="-0.10423" transform="matrix(0.588417 -0.808558 0.55263 0.833427 22.0098 165.963)" stroke="white" stroke-opacity="0.24" stroke-width="0.20846"/>
<line y1="-0.10423" x2="21.6545" y2="-0.10423" transform="matrix(0.588417 -0.808558 0.55263 0.833427 22.0098 184.289)" stroke="white" stroke-opacity="0.24" stroke-width="0.20846"/>
<line y1="-0.10423" x2="21.6545" y2="-0.10423" transform="matrix(0.588417 -0.808558 0.55263 0.833427 22.0098 201.803)" stroke="white" stroke-opacity="0.24" stroke-width="0.20846"/>
<line y1="-0.10423" x2="21.6545" y2="-0.10423" transform="matrix(0.588417 -0.808558 0.55263 0.833427 22.0098 220.145)" stroke="white" stroke-opacity="0.24" stroke-width="0.20846"/>
<line y1="-0.10423" x2="21.6545" y2="-0.10423" transform="matrix(0.588417 -0.808558 0.55263 0.833427 22.0098 237.659)" stroke="white" stroke-opacity="0.24" stroke-width="0.20846"/>
<line y1="-0.10423" x2="21.6545" y2="-0.10423" transform="matrix(0.588417 -0.808558 0.55263 0.833427 22.0098 256.001)" stroke="white" stroke-opacity="0.24" stroke-width="0.20846"/>
<line y1="-0.10423" x2="21.6545" y2="-0.10423" transform="matrix(0.588417 -0.808558 0.55263 0.833427 43.4335 22.5397)" stroke="white" stroke-opacity="0.24" stroke-width="0.20846"/>
<line y1="-0.10423" x2="21.6545" y2="-0.10423" transform="matrix(0.588417 -0.808558 0.55263 0.833427 43.4335 40.8816)" stroke="white" stroke-opacity="0.24" stroke-width="0.20846"/>
<line y1="-0.10423" x2="21.6545" y2="-0.10423" transform="matrix(0.588417 -0.808558 0.55263 0.833427 43.4335 58.3955)" stroke="white" stroke-opacity="0.24" stroke-width="0.20846"/>
<line y1="-0.10423" x2="21.6545" y2="-0.10423" transform="matrix(0.588417 -0.808558 0.55263 0.833427 43.4335 76.7375)" stroke="white" stroke-opacity="0.24" stroke-width="0.20846"/>
<line y1="-0.10423" x2="21.6545" y2="-0.10423" transform="matrix(0.588417 -0.808558 0.55263 0.833427 43.4335 94.2358)" stroke="white" stroke-opacity="0.24" stroke-width="0.20846"/>
<line y1="-0.10423" x2="21.6545" y2="-0.10423" transform="matrix(0.588417 -0.808558 0.55263 0.833427 43.4335 112.578)" stroke="white" stroke-opacity="0.24" stroke-width="0.20846"/>
<line y1="-0.10423" x2="21.6545" y2="-0.10423" transform="matrix(0.588417 -0.808558 0.55263 0.833427 43.4335 130.092)" stroke="white" stroke-opacity="0.24" stroke-width="0.20846"/>
<line y1="-0.10423" x2="21.6545" y2="-0.10423" transform="matrix(0.588417 -0.808558 0.55263 0.833427 43.4335 148.449)" stroke="white" stroke-opacity="0.24" stroke-width="0.20846"/>
<line y1="-0.10423" x2="21.6545" y2="-0.10423" transform="matrix(0.588417 -0.808558 0.55263 0.833427 43.4335 165.963)" stroke="white" stroke-opacity="0.24" stroke-width="0.20846"/>
<line y1="-0.10423" x2="21.6545" y2="-0.10423" transform="matrix(0.588417 -0.808558 0.55263 0.833427 43.4335 184.289)" stroke="white" stroke-opacity="0.24" stroke-width="0.20846"/>
<line y1="-0.10423" x2="21.6545" y2="-0.10423" transform="matrix(0.588417 -0.808558 0.55263 0.833427 43.4335 201.803)" stroke="white" stroke-opacity="0.24" stroke-width="0.20846"/>
<line y1="-0.10423" x2="21.6545" y2="-0.10423" transform="matrix(0.588417 -0.808558 0.55263 0.833427 43.4335 220.145)" stroke="white" stroke-opacity="0.24" stroke-width="0.20846"/>
<line y1="-0.10423" x2="21.6545" y2="-0.10423" transform="matrix(0.588417 -0.808558 0.55263 0.833427 43.4335 237.659)" stroke="white" stroke-opacity="0.24" stroke-width="0.20846"/>
<line y1="-0.10423" x2="21.6545" y2="-0.10423" transform="matrix(0.588417 -0.808558 0.55263 0.833427 43.4335 256.001)" stroke="white" stroke-opacity="0.24" stroke-width="0.20846"/>
<line y1="-0.10423" x2="21.6545" y2="-0.10423" transform="matrix(0.588417 -0.808558 0.55263 0.833427 67.1798 20.0087)" stroke="white" stroke-opacity="0.24" stroke-width="0.20846"/>
<line y1="-0.10423" x2="21.6545" y2="-0.10423" transform="matrix(0.588417 -0.808558 0.55263 0.833427 67.1798 38.3506)" stroke="white" stroke-opacity="0.24" stroke-width="0.20846"/>
<line y1="-0.10423" x2="21.6545" y2="-0.10423" transform="matrix(0.588417 -0.808558 0.55263 0.833427 67.1798 55.8645)" stroke="white" stroke-opacity="0.24" stroke-width="0.20846"/>
<line y1="-0.10423" x2="21.6545" y2="-0.10423" transform="matrix(0.588417 -0.808558 0.55263 0.833427 67.1798 74.2065)" stroke="white" stroke-opacity="0.24" stroke-width="0.20846"/>
<line y1="-0.10423" x2="21.6545" y2="-0.10423" transform="matrix(0.588417 -0.808558 0.55263 0.833427 67.1798 91.7048)" stroke="white" stroke-opacity="0.24" stroke-width="0.20846"/>
<line y1="-0.10423" x2="21.6545" y2="-0.10423" transform="matrix(0.588417 -0.808558 0.55263 0.833427 67.1798 110.047)" stroke="white" stroke-opacity="0.24" stroke-width="0.20846"/>
<line y1="-0.10423" x2="21.6545" y2="-0.10423" transform="matrix(0.588417 -0.808558 0.55263 0.833427 67.1798 127.561)" stroke="white" stroke-opacity="0.24" stroke-width="0.20846"/>
<line y1="-0.10423" x2="21.6545" y2="-0.10423" transform="matrix(0.588417 -0.808558 0.55263 0.833427 67.1798 145.903)" stroke="white" stroke-opacity="0.24" stroke-width="0.20846"/>
<line y1="-0.10423" x2="21.6545" y2="-0.10423" transform="matrix(0.588417 -0.808558 0.55263 0.833427 67.1798 163.401)" stroke="white" stroke-opacity="0.24" stroke-width="0.20846"/>
<line y1="-0.10423" x2="21.6545" y2="-0.10423" transform="matrix(0.588417 -0.808558 0.55263 0.833427 67.1798 181.743)" stroke="white" stroke-opacity="0.24" stroke-width="0.20846"/>
<line y1="-0.10423" x2="21.6545" y2="-0.10423" transform="matrix(0.588417 -0.808558 0.55263 0.833427 67.1798 199.272)" stroke="white" stroke-opacity="0.24" stroke-width="0.20846"/>
<line y1="-0.10423" x2="21.6545" y2="-0.10423" transform="matrix(0.588417 -0.808558 0.55263 0.833427 67.1798 217.614)" stroke="white" stroke-opacity="0.24" stroke-width="0.20846"/>
<line y1="-0.10423" x2="21.6545" y2="-0.10423" transform="matrix(0.588417 -0.808558 0.55263 0.833427 67.1798 235.128)" stroke="white" stroke-opacity="0.24" stroke-width="0.20846"/>
<line y1="-0.10423" x2="21.6545" y2="-0.10423" transform="matrix(0.588417 -0.808558 0.55263 0.833427 67.1798 253.47)" stroke="white" stroke-opacity="0.24" stroke-width="0.20846"/>
<line y1="-0.10423" x2="21.6545" y2="-0.10423" transform="matrix(0.588417 -0.808558 0.55263 0.833427 90.9261 19.1806)" stroke="white" stroke-opacity="0.24" stroke-width="0.20846"/>
<line y1="-0.10423" x2="21.6545" y2="-0.10423" transform="matrix(0.588417 -0.808558 0.55263 0.833427 90.9261 37.5226)" stroke="white" stroke-opacity="0.24" stroke-width="0.20846"/>
<line y1="-0.10423" x2="21.6545" y2="-0.10423" transform="matrix(0.588417 -0.808558 0.55263 0.833427 90.9261 55.0209)" stroke="white" stroke-opacity="0.24" stroke-width="0.20846"/>
<line y1="-0.10423" x2="21.6545" y2="-0.10423" transform="matrix(0.588417 -0.808558 0.55263 0.833427 90.9261 73.3628)" stroke="white" stroke-opacity="0.24" stroke-width="0.20846"/>
<line y1="-0.10423" x2="21.6545" y2="-0.10423" transform="matrix(0.588417 -0.808558 0.55263 0.833427 90.9261 90.8767)" stroke="white" stroke-opacity="0.24" stroke-width="0.20846"/>
<line y1="-0.10423" x2="21.6545" y2="-0.10423" transform="matrix(0.588417 -0.808558 0.55263 0.833427 90.9261 109.219)" stroke="white" stroke-opacity="0.24" stroke-width="0.20846"/>
<line y1="-0.10423" x2="21.6545" y2="-0.10423" transform="matrix(0.588417 -0.808558 0.55263 0.833427 90.9261 126.733)" stroke="white" stroke-opacity="0.24" stroke-width="0.20846"/>
<line y1="-0.10423" x2="21.6545" y2="-0.10423" transform="matrix(0.588417 -0.808558 0.55263 0.833427 90.9261 145.075)" stroke="white" stroke-opacity="0.24" stroke-width="0.20846"/>
<line y1="-0.10423" x2="21.6545" y2="-0.10423" transform="matrix(0.588417 -0.808558 0.55263 0.833427 90.9261 162.573)" stroke="white" stroke-opacity="0.24" stroke-width="0.20846"/>
<line y1="-0.10423" x2="21.6545" y2="-0.10423" transform="matrix(0.588417 -0.808558 0.55263 0.833427 90.9261 180.915)" stroke="white" stroke-opacity="0.24" stroke-width="0.20846"/>
<line y1="-0.10423" x2="21.6545" y2="-0.10423" transform="matrix(0.588417 -0.808558 0.55263 0.833427 90.9261 198.444)" stroke="white" stroke-opacity="0.24" stroke-width="0.20846"/>
<line y1="-0.10423" x2="21.6545" y2="-0.10423" transform="matrix(0.588417 -0.808558 0.55263 0.833427 90.9261 216.786)" stroke="white" stroke-opacity="0.24" stroke-width="0.20846"/>
<line y1="-0.10423" x2="21.6545" y2="-0.10423" transform="matrix(0.588417 -0.808558 0.55263 0.833427 90.9261 234.285)" stroke="white" stroke-opacity="0.24" stroke-width="0.20846"/>
<line y1="-0.10423" x2="21.6545" y2="-0.10423" transform="matrix(0.588417 -0.808558 0.55263 0.833427 90.9261 252.627)" stroke="white" stroke-opacity="0.24" stroke-width="0.20846"/>
<line y1="-0.10423" x2="21.6545" y2="-0.10423" transform="matrix(0.588417 -0.808558 0.55263 0.833427 112.361 20.0087)" stroke="white" stroke-opacity="0.24" stroke-width="0.20846"/>
<line y1="-0.10423" x2="21.6545" y2="-0.10423" transform="matrix(0.588417 -0.808558 0.55263 0.833427 112.361 38.3506)" stroke="white" stroke-opacity="0.24" stroke-width="0.20846"/>
<line y1="-0.10423" x2="21.6545" y2="-0.10423" transform="matrix(0.588417 -0.808558 0.55263 0.833427 112.361 55.8645)" stroke="white" stroke-opacity="0.24" stroke-width="0.20846"/>
<line y1="-0.10423" x2="21.6545" y2="-0.10423" transform="matrix(0.588417 -0.808558 0.55263 0.833427 112.361 74.2065)" stroke="white" stroke-opacity="0.24" stroke-width="0.20846"/>
<line y1="-0.10423" x2="21.6545" y2="-0.10423" transform="matrix(0.588417 -0.808558 0.55263 0.833427 112.361 91.7048)" stroke="white" stroke-opacity="0.24" stroke-width="0.20846"/>
<line y1="-0.10423" x2="21.6545" y2="-0.10423" transform="matrix(0.588417 -0.808558 0.55263 0.833427 112.361 110.047)" stroke="white" stroke-opacity="0.24" stroke-width="0.20846"/>
<line y1="-0.10423" x2="21.6545" y2="-0.10423" transform="matrix(0.588417 -0.808558 0.55263 0.833427 112.361 127.561)" stroke="white" stroke-opacity="0.24" stroke-width="0.20846"/>
<line y1="-0.10423" x2="21.6545" y2="-0.10423" transform="matrix(0.588417 -0.808558 0.55263 0.833427 112.361 145.903)" stroke="white" stroke-opacity="0.24" stroke-width="0.20846"/>
<line y1="-0.10423" x2="21.6545" y2="-0.10423" transform="matrix(0.588417 -0.808558 0.55263 0.833427 112.361 163.401)" stroke="white" stroke-opacity="0.24" stroke-width="0.20846"/>
<line y1="-0.10423" x2="21.6545" y2="-0.10423" transform="matrix(0.588417 -0.808558 0.55263 0.833427 112.361 181.743)" stroke="white" stroke-opacity="0.24" stroke-width="0.20846"/>
<line y1="-0.10423" x2="21.6545" y2="-0.10423" transform="matrix(0.588417 -0.808558 0.55263 0.833427 112.361 199.272)" stroke="white" stroke-opacity="0.24" stroke-width="0.20846"/>
<line y1="-0.10423" x2="21.6545" y2="-0.10423" transform="matrix(0.588417 -0.808558 0.55263 0.833427 112.361 217.614)" stroke="white" stroke-opacity="0.24" stroke-width="0.20846"/>
<line y1="-0.10423" x2="21.6545" y2="-0.10423" transform="matrix(0.588417 -0.808558 0.55263 0.833427 112.361 235.128)" stroke="white" stroke-opacity="0.24" stroke-width="0.20846"/>
<line y1="-0.10423" x2="21.6545" y2="-0.10423" transform="matrix(0.588417 -0.808558 0.55263 0.833427 112.361 253.47)" stroke="white" stroke-opacity="0.24" stroke-width="0.20846"/>
<line y1="-0.10423" x2="21.6545" y2="-0.10423" transform="matrix(0.588417 -0.808558 0.55263 0.833427 133.209 19.1806)" stroke="white" stroke-opacity="0.24" stroke-width="0.20846"/>
<line y1="-0.10423" x2="21.6545" y2="-0.10423" transform="matrix(0.588417 -0.808558 0.55263 0.833427 133.209 37.5226)" stroke="white" stroke-opacity="0.24" stroke-width="0.20846"/>
<line y1="-0.10423" x2="21.6545" y2="-0.10423" transform="matrix(0.588417 -0.808558 0.55263 0.833427 133.209 55.0209)" stroke="white" stroke-opacity="0.24" stroke-width="0.20846"/>
<line y1="-0.10423" x2="21.6545" y2="-0.10423" transform="matrix(0.588417 -0.808558 0.55263 0.833427 133.209 73.3628)" stroke="white" stroke-opacity="0.24" stroke-width="0.20846"/>
<line y1="-0.10423" x2="21.6545" y2="-0.10423" transform="matrix(0.588417 -0.808558 0.55263 0.833427 133.209 90.8767)" stroke="white" stroke-opacity="0.24" stroke-width="0.20846"/>
<line y1="-0.10423" x2="21.6545" y2="-0.10423" transform="matrix(0.588417 -0.808558 0.55263 0.833427 133.209 109.219)" stroke="white" stroke-opacity="0.24" stroke-width="0.20846"/>
<line y1="-0.10423" x2="21.6545" y2="-0.10423" transform="matrix(0.588417 -0.808558 0.55263 0.833427 133.209 126.733)" stroke="white" stroke-opacity="0.24" stroke-width="0.20846"/>
<line y1="-0.10423" x2="21.6545" y2="-0.10423" transform="matrix(0.588417 -0.808558 0.55263 0.833427 133.209 145.075)" stroke="white" stroke-opacity="0.24" stroke-width="0.20846"/>
<line y1="-0.10423" x2="21.6545" y2="-0.10423" transform="matrix(0.588417 -0.808558 0.55263 0.833427 133.209 162.573)" stroke="white" stroke-opacity="0.24" stroke-width="0.20846"/>
<line y1="-0.10423" x2="21.6545" y2="-0.10423" transform="matrix(0.588417 -0.808558 0.55263 0.833427 133.209 180.915)" stroke="white" stroke-opacity="0.24" stroke-width="0.20846"/>
<line y1="-0.10423" x2="21.6545" y2="-0.10423" transform="matrix(0.588417 -0.808558 0.55263 0.833427 133.209 198.444)" stroke="white" stroke-opacity="0.24" stroke-width="0.20846"/>
<line y1="-0.10423" x2="21.6545" y2="-0.10423" transform="matrix(0.588417 -0.808558 0.55263 0.833427 133.209 216.786)" stroke="white" stroke-opacity="0.24" stroke-width="0.20846"/>
<line y1="-0.10423" x2="21.6545" y2="-0.10423" transform="matrix(0.588417 -0.808558 0.55263 0.833427 133.209 234.285)" stroke="white" stroke-opacity="0.24" stroke-width="0.20846"/>
<line y1="-0.10423" x2="21.6545" y2="-0.10423" transform="matrix(0.588417 -0.808558 0.55263 0.833427 133.209 252.627)" stroke="white" stroke-opacity="0.24" stroke-width="0.20846"/>
<line y1="-0.10423" x2="21.6545" y2="-0.10423" transform="matrix(0.588417 -0.808558 0.55263 0.833427 156.955 20.0087)" stroke="white" stroke-opacity="0.24" stroke-width="0.20846"/>
<line y1="-0.10423" x2="21.6545" y2="-0.10423" transform="matrix(0.588417 -0.808558 0.55263 0.833427 156.955 38.3506)" stroke="white" stroke-opacity="0.24" stroke-width="0.20846"/>
<line y1="-0.10423" x2="21.6545" y2="-0.10423" transform="matrix(0.588417 -0.808558 0.55263 0.833427 156.955 55.8645)" stroke="white" stroke-opacity="0.24" stroke-width="0.20846"/>
<line y1="-0.10423" x2="21.6545" y2="-0.10423" transform="matrix(0.588417 -0.808558 0.55263 0.833427 156.955 74.2065)" stroke="white" stroke-opacity="0.24" stroke-width="0.20846"/>
<line y1="-0.10423" x2="21.6545" y2="-0.10423" transform="matrix(0.588417 -0.808558 0.55263 0.833427 156.955 91.7048)" stroke="white" stroke-opacity="0.24" stroke-width="0.20846"/>
<line y1="-0.10423" x2="21.6545" y2="-0.10423" transform="matrix(0.588417 -0.808558 0.55263 0.833427 156.955 110.047)" stroke="white" stroke-opacity="0.24" stroke-width="0.20846"/>
<line y1="-0.10423" x2="21.6545" y2="-0.10423" transform="matrix(0.588417 -0.808558 0.55263 0.833427 156.955 127.561)" stroke="white" stroke-opacity="0.24" stroke-width="0.20846"/>
<line y1="-0.10423" x2="21.6545" y2="-0.10423" transform="matrix(0.588417 -0.808558 0.55263 0.833427 156.955 145.903)" stroke="white" stroke-opacity="0.24" stroke-width="0.20846"/>
<line y1="-0.10423" x2="21.6545" y2="-0.10423" transform="matrix(0.588417 -0.808558 0.55263 0.833427 156.955 163.401)" stroke="white" stroke-opacity="0.24" stroke-width="0.20846"/>
<line y1="-0.10423" x2="21.6545" y2="-0.10423" transform="matrix(0.588417 -0.808558 0.55263 0.833427 156.955 181.743)" stroke="white" stroke-opacity="0.24" stroke-width="0.20846"/>
<line y1="-0.10423" x2="21.6545" y2="-0.10423" transform="matrix(0.588417 -0.808558 0.55263 0.833427 156.955 199.272)" stroke="white" stroke-opacity="0.24" stroke-width="0.20846"/>
<line y1="-0.10423" x2="21.6545" y2="-0.10423" transform="matrix(0.588417 -0.808558 0.55263 0.833427 156.955 217.614)" stroke="white" stroke-opacity="0.24" stroke-width="0.20846"/>
<line y1="-0.10423" x2="21.6545" y2="-0.10423" transform="matrix(0.588417 -0.808558 0.55263 0.833427 156.955 235.128)" stroke="white" stroke-opacity="0.24" stroke-width="0.20846"/>
<line y1="-0.10423" x2="21.6545" y2="-0.10423" transform="matrix(0.588417 -0.808558 0.55263 0.833427 156.955 253.47)" stroke="white" stroke-opacity="0.24" stroke-width="0.20846"/>
<line y1="-0.10423" x2="21.6545" y2="-0.10423" transform="matrix(0.588417 -0.808558 0.55263 0.833427 178.39 20.868)" stroke="white" stroke-opacity="0.24" stroke-width="0.20846"/>
<line y1="-0.10423" x2="21.6545" y2="-0.10423" transform="matrix(0.588417 -0.808558 0.55263 0.833427 178.39 39.2099)" stroke="white" stroke-opacity="0.24" stroke-width="0.20846"/>
<line y1="-0.10423" x2="21.6545" y2="-0.10423" transform="matrix(0.588417 -0.808558 0.55263 0.833427 178.39 56.7082)" stroke="white" stroke-opacity="0.24" stroke-width="0.20846"/>
<line y1="-0.10423" x2="21.6545" y2="-0.10423" transform="matrix(0.588417 -0.808558 0.55263 0.833427 178.39 75.0501)" stroke="white" stroke-opacity="0.24" stroke-width="0.20846"/>
<line y1="-0.10423" x2="21.6545" y2="-0.10423" transform="matrix(0.588417 -0.808558 0.55263 0.833427 178.39 92.5641)" stroke="white" stroke-opacity="0.24" stroke-width="0.20846"/>
<line y1="-0.10423" x2="21.6545" y2="-0.10423" transform="matrix(0.588417 -0.808558 0.55263 0.833427 178.39 110.906)" stroke="white" stroke-opacity="0.24" stroke-width="0.20846"/>
<line y1="-0.10423" x2="21.6545" y2="-0.10423" transform="matrix(0.588417 -0.808558 0.55263 0.833427 178.39 128.404)" stroke="white" stroke-opacity="0.24" stroke-width="0.20846"/>
<line y1="-0.10423" x2="21.6545" y2="-0.10423" transform="matrix(0.588417 -0.808558 0.55263 0.833427 178.39 146.746)" stroke="white" stroke-opacity="0.24" stroke-width="0.20846"/>
<line y1="-0.10423" x2="21.6545" y2="-0.10423" transform="matrix(0.588417 -0.808558 0.55263 0.833427 178.39 164.276)" stroke="white" stroke-opacity="0.24" stroke-width="0.20846"/>
<line y1="-0.10423" x2="21.6545" y2="-0.10423" transform="matrix(0.588417 -0.808558 0.55263 0.833427 178.39 182.618)" stroke="white" stroke-opacity="0.24" stroke-width="0.20846"/>
<line y1="-0.10423" x2="21.6545" y2="-0.10423" transform="matrix(0.588417 -0.808558 0.55263 0.833427 178.39 200.116)" stroke="white" stroke-opacity="0.24" stroke-width="0.20846"/>
<line y1="-0.10423" x2="21.6545" y2="-0.10423" transform="matrix(0.588417 -0.808558 0.55263 0.833427 178.39 218.458)" stroke="white" stroke-opacity="0.24" stroke-width="0.20846"/>
<line y1="-0.10423" x2="21.6545" y2="-0.10423" transform="matrix(0.588417 -0.808558 0.55263 0.833427 178.39 235.972)" stroke="white" stroke-opacity="0.24" stroke-width="0.20846"/>
<line y1="-0.10423" x2="21.6545" y2="-0.10423" transform="matrix(0.588417 -0.808558 0.55263 0.833427 178.39 254.314)" stroke="white" stroke-opacity="0.24" stroke-width="0.20846"/>
<line y1="-0.10423" x2="21.6545" y2="-0.10423" transform="matrix(0.588417 -0.808558 0.55263 0.833427 198.077 22.5401)" stroke="white" stroke-opacity="0.24" stroke-width="0.20846"/>
<line y1="-0.10423" x2="21.6545" y2="-0.10423" transform="matrix(0.588417 -0.808558 0.55263 0.833427 198.077 40.8821)" stroke="white" stroke-opacity="0.24" stroke-width="0.20846"/>
<line y1="-0.10423" x2="21.6545" y2="-0.10423" transform="matrix(0.588417 -0.808558 0.55263 0.833427 198.077 58.396)" stroke="white" stroke-opacity="0.24" stroke-width="0.20846"/>
<line y1="-0.10423" x2="21.6545" y2="-0.10423" transform="matrix(0.588417 -0.808558 0.55263 0.833427 198.077 76.738)" stroke="white" stroke-opacity="0.24" stroke-width="0.20846"/>
<line y1="-0.10423" x2="21.6545" y2="-0.10423" transform="matrix(0.588417 -0.808558 0.55263 0.833427 198.077 94.2362)" stroke="white" stroke-opacity="0.24" stroke-width="0.20846"/>
<line y1="-0.10423" x2="21.6545" y2="-0.10423" transform="matrix(0.588417 -0.808558 0.55263 0.833427 198.077 112.578)" stroke="white" stroke-opacity="0.24" stroke-width="0.20846"/>
<line y1="-0.10423" x2="21.6545" y2="-0.10423" transform="matrix(0.588417 -0.808558 0.55263 0.833427 198.077 130.092)" stroke="white" stroke-opacity="0.24" stroke-width="0.20846"/>
<line y1="-0.10423" x2="21.6545" y2="-0.10423" transform="matrix(0.588417 -0.808558 0.55263 0.833427 198.077 148.45)" stroke="white" stroke-opacity="0.24" stroke-width="0.20846"/>
<line y1="-0.10423" x2="21.6545" y2="-0.10423" transform="matrix(0.588417 -0.808558 0.55263 0.833427 198.077 165.964)" stroke="white" stroke-opacity="0.24" stroke-width="0.20846"/>
<line y1="-0.10423" x2="21.6545" y2="-0.10423" transform="matrix(0.588417 -0.808558 0.55263 0.833427 198.077 184.29)" stroke="white" stroke-opacity="0.24" stroke-width="0.20846"/>
<line y1="-0.10423" x2="21.6545" y2="-0.10423" transform="matrix(0.588417 -0.808558 0.55263 0.833427 198.077 201.804)" stroke="white" stroke-opacity="0.24" stroke-width="0.20846"/>
<line y1="-0.10423" x2="21.6545" y2="-0.10423" transform="matrix(0.588417 -0.808558 0.55263 0.833427 198.077 220.146)" stroke="white" stroke-opacity="0.24" stroke-width="0.20846"/>
<line y1="-0.10423" x2="21.6545" y2="-0.10423" transform="matrix(0.588417 -0.808558 0.55263 0.833427 198.077 237.66)" stroke="white" stroke-opacity="0.24" stroke-width="0.20846"/>
<line y1="-0.10423" x2="21.6545" y2="-0.10423" transform="matrix(0.588417 -0.808558 0.55263 0.833427 198.077 256.002)" stroke="white" stroke-opacity="0.24" stroke-width="0.20846"/>
<line y1="-0.10423" x2="21.6545" y2="-0.10423" transform="matrix(0.588417 -0.808558 0.55263 0.833427 223.56 18.3682)" stroke="white" stroke-opacity="0.24" stroke-width="0.20846"/>
<line y1="-0.10423" x2="21.6545" y2="-0.10423" transform="matrix(0.588417 -0.808558 0.55263 0.833427 223.56 36.7101)" stroke="white" stroke-opacity="0.24" stroke-width="0.20846"/>
<line y1="-0.10423" x2="21.6545" y2="-0.10423" transform="matrix(0.588417 -0.808558 0.55263 0.833427 223.56 54.2084)" stroke="white" stroke-opacity="0.24" stroke-width="0.20846"/>
<line y1="-0.10423" x2="21.6545" y2="-0.10423" transform="matrix(0.588417 -0.808558 0.55263 0.833427 223.56 72.5504)" stroke="white" stroke-opacity="0.24" stroke-width="0.20846"/>
<line y1="-0.10423" x2="21.6545" y2="-0.10423" transform="matrix(0.588417 -0.808558 0.55263 0.833427 223.56 90.0643)" stroke="white" stroke-opacity="0.24" stroke-width="0.20846"/>
<line y1="-0.10423" x2="21.6545" y2="-0.10423" transform="matrix(0.588417 -0.808558 0.55263 0.833427 223.56 108.406)" stroke="white" stroke-opacity="0.24" stroke-width="0.20846"/>
<line y1="-0.10423" x2="21.6545" y2="-0.10423" transform="matrix(0.588417 -0.808558 0.55263 0.833427 223.56 125.905)" stroke="white" stroke-opacity="0.24" stroke-width="0.20846"/>
<line y1="-0.10423" x2="21.6545" y2="-0.10423" transform="matrix(0.588417 -0.808558 0.55263 0.833427 223.56 144.247)" stroke="white" stroke-opacity="0.24" stroke-width="0.20846"/>
<line y1="-0.10423" x2="21.6545" y2="-0.10423" transform="matrix(0.588417 -0.808558 0.55263 0.833427 223.56 161.776)" stroke="white" stroke-opacity="0.24" stroke-width="0.20846"/>
<line y1="-0.10423" x2="21.6545" y2="-0.10423" transform="matrix(0.588417 -0.808558 0.55263 0.833427 223.56 180.118)" stroke="white" stroke-opacity="0.24" stroke-width="0.20846"/>
<line y1="-0.10423" x2="21.6545" y2="-0.10423" transform="matrix(0.588417 -0.808558 0.55263 0.833427 223.56 197.616)" stroke="white" stroke-opacity="0.24" stroke-width="0.20846"/>
<line y1="-0.10423" x2="21.6545" y2="-0.10423" transform="matrix(0.588417 -0.808558 0.55263 0.833427 223.56 215.958)" stroke="white" stroke-opacity="0.24" stroke-width="0.20846"/>
<line y1="-0.10423" x2="21.6545" y2="-0.10423" transform="matrix(0.588417 -0.808558 0.55263 0.833427 223.56 233.472)" stroke="white" stroke-opacity="0.24" stroke-width="0.20846"/>
<line y1="-0.10423" x2="21.6545" y2="-0.10423" transform="matrix(0.588417 -0.808558 0.55263 0.833427 223.56 251.814)" stroke="white" stroke-opacity="0.24" stroke-width="0.20846"/>
<line y1="-0.10423" x2="21.6545" y2="-0.10423" transform="matrix(0.588417 -0.808558 0.55263 0.833427 243.258 17.5089)" stroke="white" stroke-opacity="0.24" stroke-width="0.20846"/>
<line y1="-0.10423" x2="21.6545" y2="-0.10423" transform="matrix(0.588417 -0.808558 0.55263 0.833427 243.258 35.8509)" stroke="white" stroke-opacity="0.24" stroke-width="0.20846"/>
<line y1="-0.10423" x2="21.6545" y2="-0.10423" transform="matrix(0.588417 -0.808558 0.55263 0.833427 243.258 53.3648)" stroke="white" stroke-opacity="0.24" stroke-width="0.20846"/>
<line y1="-0.10423" x2="21.6545" y2="-0.10423" transform="matrix(0.588417 -0.808558 0.55263 0.833427 243.258 71.7067)" stroke="white" stroke-opacity="0.24" stroke-width="0.20846"/>
<line y1="-0.10423" x2="21.6545" y2="-0.10423" transform="matrix(0.588417 -0.808558 0.55263 0.833427 243.258 89.205)" stroke="white" stroke-opacity="0.24" stroke-width="0.20846"/>
<line y1="-0.10423" x2="21.6545" y2="-0.10423" transform="matrix(0.588417 -0.808558 0.55263 0.833427 243.258 107.547)" stroke="white" stroke-opacity="0.24" stroke-width="0.20846"/>
<line y1="-0.10423" x2="21.6545" y2="-0.10423" transform="matrix(0.588417 -0.808558 0.55263 0.833427 243.258 125.061)" stroke="white" stroke-opacity="0.24" stroke-width="0.20846"/>
<line y1="-0.10423" x2="21.6545" y2="-0.10423" transform="matrix(0.588417 -0.808558 0.55263 0.833427 243.258 143.403)" stroke="white" stroke-opacity="0.24" stroke-width="0.20846"/>
<line y1="-0.10423" x2="21.6545" y2="-0.10423" transform="matrix(0.588417 -0.808558 0.55263 0.833427 243.258 160.901)" stroke="white" stroke-opacity="0.24" stroke-width="0.20846"/>
<line y1="-0.10423" x2="21.6545" y2="-0.10423" transform="matrix(0.588417 -0.808558 0.55263 0.833427 243.258 179.243)" stroke="white" stroke-opacity="0.24" stroke-width="0.20846"/>
<line y1="-0.10423" x2="21.6545" y2="-0.10423" transform="matrix(0.588417 -0.808558 0.55263 0.833427 243.258 196.773)" stroke="white" stroke-opacity="0.24" stroke-width="0.20846"/>
<line y1="-0.10423" x2="21.6545" y2="-0.10423" transform="matrix(0.588417 -0.808558 0.55263 0.833427 243.258 215.115)" stroke="white" stroke-opacity="0.24" stroke-width="0.20846"/>
<line y1="-0.10423" x2="21.6545" y2="-0.10423" transform="matrix(0.588417 -0.808558 0.55263 0.833427 243.258 232.613)" stroke="white" stroke-opacity="0.24" stroke-width="0.20846"/>
<line y1="-0.10423" x2="21.6545" y2="-0.10423" transform="matrix(0.588417 -0.808558 0.55263 0.833427 243.258 250.955)" stroke="white" stroke-opacity="0.24" stroke-width="0.20846"/>
<path d="M225 89.2L186.2 128V69.8H128L166.8 31H225V89.2Z" fill="url(#paint1_linear_13003_13836)"/>
<path d="M69.8 128L128 69.8L186.2 128L128 186.2L69.8 128Z" fill="url(#paint2_linear_13003_13836)"/>
<path d="M69.8 128L31 166.8V225H89.2L128 186.2L166.8 225H225V166.8L186.2 128V186.2H128H69.8V128Z" fill="url(#paint3_linear_13003_13836)"/>
<path d="M69.8 128L31 89.2V31H89.2L128 69.8H69.8V128Z" fill="url(#paint4_linear_13003_13836)"/>
</g>
<defs>
<linearGradient id="paint0_linear_13003_13836" x1="128" y1="0" x2="128" y2="256" gradientUnits="userSpaceOnUse">
<stop stop-color="#484443"/>
<stop offset="1" stop-color="#0B0707"/>
</linearGradient>
<linearGradient id="paint1_linear_13003_13836" x1="128" y1="31" x2="128" y2="225" gradientUnits="userSpaceOnUse">
<stop stop-color="white"/>
<stop offset="1" stop-color="#999999"/>
</linearGradient>
<linearGradient id="paint2_linear_13003_13836" x1="128" y1="31" x2="128" y2="225" gradientUnits="userSpaceOnUse">
<stop stop-color="white"/>
<stop offset="1" stop-color="#999999"/>
</linearGradient>
<linearGradient id="paint3_linear_13003_13836" x1="128" y1="31" x2="128" y2="225" gradientUnits="userSpaceOnUse">
<stop stop-color="white"/>
<stop offset="1" stop-color="#999999"/>
</linearGradient>
<linearGradient id="paint4_linear_13003_13836" x1="128" y1="31" x2="128" y2="225" gradientUnits="userSpaceOnUse">
<stop stop-color="white"/>
<stop offset="1" stop-color="#999999"/>
</linearGradient>
<clipPath id="clip0_13003_13836">
<rect width="256" height="256" rx="8" fill="white"/>
</clipPath>
</defs>
</svg>
